[Header]
FileType HTR
DataType HTRS
FileVersion 1
NumSegments 48
NumFrames 3
DataFrameRate 30
EulerRotationOrder ZYX
CalibrationUnits mm
RotationUnits Degrees
GlobalAxisofGravity Y
BoneLengthAxis Y
ScaleFactor 1.0
[SegmentNames&Hierarchy]
Wolf	GLOBAL
Becken	Wolf
Bauch	Becken
Bauch_001	Bauch
Brust	Bauch_001
Hals	Brust
Kopf_002	Hals
Kopf	Kopf_002
Unterkiefer	Kopf
Hals_fett	Unterkiefer
Maulunten	Unterkiefer
Mauloben	Kopf
MundW_L	Kopf
MundW_R	Kopf
Augen_con	Kopf
IK_Aug_R	Augen_con
IK_Aug_L	Augen_con
Aug_R	Kopf
aug_L	Kopf
Ohr_L	Kopf
Ohr_R	Kopf
Braun_O_L	Kopf
Braun_O_R	Kopf
aug_lied_O_L	Kopf
aug_lied_O_R	Kopf
aug_lied_U_L	Kopf
aug_lied_U_R	Kopf
Bauch_003	Brust
Schalterplatte_L	Bauch_003
Oberarm_L	Schalterplatte_L
Unterarm_L	Oberarm_L
Vorderpfote_L	Unterarm_L
Schalterplatte_R	Bauch_003
Oberarm_R	Schalterplatte_R
Unterarm_R	Oberarm_R
Vorderpfote_R	Unterarm_R
Schwanz	Becken
Schwanz_001	Schwanz
Schwanz_002	Schwanz_001
Schwanz_003	Schwanz_002
Oberschenkel_L	Becken
Unterschenkel_L	Oberschenkel_L
Pfote1_L	Unterschenkel_L
Pfote2_L	Pfote1_L
Oberschenkel_R	Becken
Unterschenkel_R	Oberschenkel_R
Pfote1_R	Unterschenkel_R
Pfote2_R	Pfote1_R
[BasePosition]
Wolf	0	0	0	0	0	0	1
Becken	0	0	0	0	0	0	1
Bauch	0	0	0	0	0	0	1
Bauch_001	0	0	0	0	0	0	1
Brust	0	0	0	0	0	0	1
Hals	0	0	0	0	0	0	1
Kopf_002	0	0	0	0	0	0	1
Kopf	0	0	0	0	0	0	1
Unterkiefer	0	0	0	0	0	0	1
Hals_fett	0	0	0	0	0	0	1
Maulunten	0	0	0	0	0	0	1
Mauloben	0	0	0	0	0	0	1
MundW_L	0	0	0	0	0	0	1
MundW_R	0	0	0	0	0	0	1
Augen_con	0	0	0	0	0	0	1
IK_Aug_R	0	0	0	0	0	0	1
IK_Aug_L	0	0	0	0	0	0	1
Aug_R	0	0	0	0	0	0	1
aug_L	0	0	0	0	0	0	1
Ohr_L	0	0	0	0	0	0	1
Ohr_R	0	0	0	0	0	0	1
Braun_O_L	0	0	0	0	0	0	1
Braun_O_R	0	0	0	0	0	0	1
aug_lied_O_L	0	0	0	0	0	0	1
aug_lied_O_R	0	0	0	0	0	0	1
aug_lied_U_L	0	0	0	0	0	0	1
aug_lied_U_R	0	0	0	0	0	0	1
Bauch_003	0	0	0	0	0	0	1
Schalterplatte_L	0	0	0	0	0	0	1
Oberarm_L	0	0	0	0	0	0	1
Unterarm_L	0	0	0	0	0	0	1
Vorderpfote_L	0	0	0	0	0	0	1
Schalterplatte_R	0	0	0	0	0	0	1
Oberarm_R	0	0	0	0	0	0	1
Unterarm_R	0	0	0	0	0	0	1
Vorderpfote_R	0	0	0	0	0	0	1
Schwanz	0	0	0	0	0	0	1
Schwanz_001	0	0	0	0	0	0	1
Schwanz_002	0	0	0	0	0	0	1
Schwanz_003	0	0	0	0	0	0	1
Oberschenkel_L	0	0	0	0	0	0	1
Unterschenkel_L	0	0	0	0	0	0	1
Pfote1_L	0	0	0	0	0	0	1
Pfote2_L	0	0	0	0	0	0	1
Oberschenkel_R	0	0	0	0	0	0	1
Unterschenkel_R	0	0	0	0	0	0	1
Pfote1_R	0	0	0	0	0	0	1
Pfote2_R	0	0	0	0	0	0	1
[Wolf]
1	0	0	0	-90	-0	0	1.0
2	0	0	0	-90	-0	0	1.0
3	0	0	0	-90	-0	0	1.0
[Becken]
1	0	-0.5106901526	1.499149919	-1.91564709e-06	144.8956909	90	1.0
2	0	-0.4855861962	1.489726067	-1.91564709e-06	146.3167725	90	1.0
3	0	-0.42547822	1.466975927	-1.91564709e-06	149.8150024	90	1.0
[Bauch]
1	1.017273545	7.68020243e-08	-0.3604196906	8.746882827e-07	32.95232773	4.853698101e-07	1.0
2	1.023048401	7.68020243e-08	-0.366866827	8.746882827e-07	30.44423485	4.853698101e-07	1.0
3	1.038679838	7.68020243e-08	-0.381755501	8.746882827e-07	24.47970581	4.853698101e-07	1.0
[Bauch_001]
1	0.5325475931	4.020625255e-08	0.2442705631	1.051260369e-06	12.72985363	4.625552208e-08	1.0
2	0.5366467834	4.020625255e-08	0.2340783477	1.051260369e-06	11.88198662	4.625552208e-08	1.0
3	0.5467641354	4.020625255e-08	0.2088933885	1.051260369e-06	9.927865982	4.625552208e-08	1.0
[Brust]
1	1.110329151	8.38275227e-08	0.6386300325	-2.585561106e-06	36.3853569	-6.053789093e-06	1.0
2	1.108004332	8.38275227e-08	0.6039544344	-2.585561106e-06	35.1095047	-6.053789093e-06	1.0
3	1.103057384	8.38275227e-08	0.5380890369	-2.585561106e-06	32.67821503	-6.053789093e-06	1.0
[Hals]
1	1.264965653	9.550224433e-08	0.7532671094	-1.920878731e-06	8.48153019	-4.161266588e-06	1.0
2	1.279426098	9.550224433e-08	0.763158083	-1.920878731e-06	9.566252708	-4.161266588e-06	1.0
3	1.30689764	9.550224433e-08	0.7819465399	-1.920878731e-06	11.63147926	-4.161266588e-06	1.0
[Kopf_002]
1	1.752594829	3.013231981e-05	0.2651812136	0.006653484888	-165.1497192	0.002557621803	1.0
2	1.752594829	3.013231981e-05	0.2651812136	0.006653484888	-165.1497192	0.002557621803	1.0
3	1.752594829	3.013231981e-05	0.2651812136	0.006653484888	-165.1497192	0.002557621803	1.0
[Kopf]
1	1.037000418	7.839815908e-08	-0.05118574947	0.04473958537	107.324501	-0.04794608802	1.0
2	1.037644029	7.839815908e-08	-0.04820200056	0.04843815416	108.7734604	-0.04443269596	1.0
3	1.03828764	7.839815908e-08	-0.04253266752	0.05400376767	111.5372467	-0.03922300786	1.0
[Unterkiefer]
1	0.6370446682	0.004552738741	0.4060619473	5.41272068	-68.38880157	-3.093541861	1.0
2	0.6370446682	0.004552738741	0.4060619473	5.41272068	-68.38880157	-3.093541861	1.0
3	0.6370446682	0.004552738741	0.4060619473	5.41272068	-68.38880157	-3.093541861	1.0
[Hals_fett]
1	0.2998236716	0.007747383788	0.1206455454	-5.071650982	-59.35961151	5.585565567	1.0
2	0.2998236716	0.007747383788	0.1206455454	-5.071650982	-59.35961151	5.585565567	1.0
3	0.2998236716	0.007747383788	0.1206455454	-5.071650982	-59.35961151	5.585565567	1.0
[Maulunten]
1	0.08317924291	-0.007747320924	-0.1206462979	-3.322208881	38.97270966	-0.8718757033	1.0
2	0.08317924291	-0.007747320924	-0.1206462979	-3.322208881	38.97270966	-0.8718757033	1.0
3	0.08317924291	-0.007747320924	-0.1206462979	-3.322208881	38.97270966	-0.8718757033	1.0
[Mauloben]
1	0.9101490974	0.0004056780017	0.400369823	-0.103267692	-28.77768707	0.0354314521	1.0
2	0.9101490974	0.0004056780017	0.400369823	-0.103267692	-28.77768707	0.0354314521	1.0
3	0.9101490974	0.0004056780017	0.400369823	-0.103267692	-28.77768707	0.0354314521	1.0
[MundW_L]
1	0.6730612516	-0.3618556559	0.3751283288	-179.8370972	-17.94884682	24.71397018	1.0
2	0.6730612516	-0.3618556559	0.3751283288	-179.8370972	-17.94884682	24.71397018	1.0
3	0.6730612516	-0.3618556559	0.3751283288	-179.8370972	-17.94884682	24.71397018	1.0
[MundW_R]
1	0.6732413769	0.362703532	0.3739836514	179.665329	-18.0242691	-24.69084167	1.0
2	0.6732413769	0.362703532	0.3739836514	179.665329	-18.0242691	-24.69084167	1.0
3	0.6732413769	0.362703532	0.3739836514	179.665329	-18.0242691	-24.69084167	1.0
[Augen_con]
1	1.807373762	-0.0001604075951	0.1835815907	0.09822228551	157.1545258	0.02385941148	1.0
2	1.807373762	-0.0001604075951	0.1835815907	0.09822228551	157.1545258	0.02385941148	1.0
3	1.807373762	-0.0001604075951	0.1835815907	0.09822228551	157.1545258	0.02385941148	1.0
[IK_Aug_R]
1	0.3461297154	0.2943200171	3.136494797e-07	-0.4194768965	-4.963055134	165.6946411	1.0
2	0.3461297154	0.2943200171	3.136494797e-07	-0.4194768965	-4.963055134	165.6946411	1.0
3	0.3461297154	0.2943200171	3.136494797e-07	-0.4194768965	-4.963055134	165.6946411	1.0
[IK_Aug_L]
1	0.3461298645	-0.2943200171	3.034585916e-07	0.4194775522	-4.963055611	-165.6946411	1.0
2	0.3461298645	-0.2943200171	3.034585916e-07	0.4194775522	-4.963055611	-165.6946411	1.0
3	0.3461298645	-0.2943200171	3.034585916e-07	0.4194775522	-4.963055611	-165.6946411	1.0
[Aug_R]
1	1.035154939	0.220780611	-0.09605786204	176.004776	-17.29164886	12.85548782	1.0
2	1.035154939	0.220780611	-0.09605786204	176.004776	-17.29164886	12.85548782	1.0
3	1.035154939	0.220780611	-0.09605786204	176.004776	-17.29164886	12.85548782	1.0
[aug_L]
1	1.035047412	-0.2215989083	-0.09536846727	-176.1891174	-17.33176422	-12.83101749	1.0
2	1.035047412	-0.2215989083	-0.09536846727	-176.1891174	-17.33176422	-12.83101749	1.0
3	1.035047412	-0.2215989083	-0.09536846727	-176.1891174	-17.33176422	-12.83101749	1.0
[Ohr_L]
1	0.6407766938	-0.365999192	-0.6893325448	-24.34924316	53.07766342	-15.02013397	1.0
2	0.6407766938	-0.365999192	-0.6893325448	-24.34924316	53.07766342	-15.02013397	1.0
3	0.6407766938	-0.365999192	-0.6893325448	-24.34924316	53.07766342	-15.02013397	1.0
[Ohr_R]
1	0.6409586668	0.3634999394	-0.6904851198	24.05786133	53.12416458	14.75857353	1.0
2	0.6409586668	0.3634999394	-0.6904851198	24.05786133	53.12416458	14.75857353	1.0
3	0.6409586668	0.3634999394	-0.6904851198	24.05786133	53.12416458	14.75857353	1.0
[Braun_O_L]
1	0.9801893234	-0.3706049621	-0.3292511106	-143.317215	-34.69634628	52.39493942	1.0
2	0.9801893234	-0.3706049621	-0.3292511106	-143.317215	-34.69634628	52.39493942	1.0
3	0.9801893234	-0.3706049621	-0.3292511106	-143.317215	-34.69634628	52.39493942	1.0
[Braun_O_R]
1	0.9803637862	0.369074285	-0.3304226696	143.182663	-34.83971786	-52.3467598	1.0
2	0.9803637862	0.369074285	-0.3304226696	143.182663	-34.83971786	-52.3467598	1.0
3	0.9803637862	0.369074285	-0.3304226696	143.182663	-34.83971786	-52.3467598	1.0
[aug_lied_O_L]
1	1.038882613	-0.3271434009	-0.1608110666	-175.8613434	-20.15596771	60.31667709	1.0
2	1.038882613	-0.3271434009	-0.1608110666	-175.8613434	-20.15596771	60.31667709	1.0
3	1.038882613	-0.3271434009	-0.1608110666	-175.8613434	-20.15596771	60.31667709	1.0
[aug_lied_O_R]
1	1.039044976	0.326115787	-0.1618431509	175.7657928	-20.31323814	-60.31218338	1.0
2	1.039044976	0.326115787	-0.1618431509	175.7657928	-20.31323814	-60.31218338	1.0
3	1.039044976	0.326115787	-0.1618431509	175.7657928	-20.31323814	-60.31218338	1.0
[aug_lied_U_L]
1	1.021916747	-0.3312866092	-0.1338487417	-159.8099365	-28.7482872	60.17462158	1.0
2	1.021916747	-0.3312866092	-0.1338487417	-159.8099365	-28.7482872	60.17462158	1.0
3	1.021916747	-0.3312866092	-0.1338487417	-159.8099365	-28.7482872	60.17462158	1.0
[aug_lied_U_R]
1	1.022078514	0.3303526044	-0.1348845363	159.7071381	-28.90531921	-60.15359879	1.0
2	1.022078514	0.3303526044	-0.1348845363	159.7071381	-28.90531921	-60.15359879	1.0
3	1.022078514	0.3303526044	-0.1348845363	159.7071381	-28.90531921	-60.15359879	1.0
[Bauch_003]
1	1.276869178	9.640092458e-08	-0.6079563498	-3.938861937e-06	-137.6799469	1.017604518e-05	1.0
2	1.276869178	9.640092458e-08	-0.6079563498	-3.938861937e-06	-137.6799469	1.017604518e-05	1.0
3	1.276869178	9.640092458e-08	-0.6079563498	-3.938861937e-06	-137.6799469	1.017604518e-05	1.0
[Schalterplatte_L]
1	0.8925708532	-0.3820799291	2.05982893e-08	10.94477749	55.16728973	-15.21652603	1.0
2	0.8925708532	-0.3820799291	2.05982893e-08	9.822305679	56.74611664	-16.00485611	1.0
3	0.8925708532	-0.3820799291	2.05982893e-08	10.94266701	52.09525299	-14.80459881	1.0
[Oberarm_L]
1	1.418637037	6.984918599e-08	2.142041922e-07	-38.75128937	-36.46147537	33.50658417	1.0
2	1.418637037	6.984918599e-08	2.142041922e-07	-49.50798035	-51.09295273	49.69354248	1.0
3	1.418637037	6.984918599e-08	2.142041922e-07	-57.78873062	-57.76940536	60.41580582	1.0
[Unterarm_L]
1	2.028227091	1.769512892e-07	2.468004823e-07	-0.9998300672	16.65845299	-1.775895834	1.0
2	2.028227091	1.769512892e-07	2.468004823e-07	-0.08640481532	26.62941933	-0.3998532891	1.0
3	2.028227091	1.769512892e-07	2.468004823e-07	0.1579129249	29.1762085	-0.1025513187	1.0
[Vorderpfote_L]
1	1.705947876	2.095475793e-07	-1.816079021e-07	-3.238248348	58.84256363	-2.171986341	1.0
2	1.705947876	2.095475793e-07	-1.816079021e-07	-8.288824081	79.16996002	-7.309580326	1.0
3	1.705947876	2.095475793e-07	-1.816079021e-07	0.06353988498	92.02768707	0.9697582126	1.0
[Schalterplatte_R]
1	0.892570734	0.3820800781	8.883210967e-08	77.57631683	80.30167389	110.2046204	1.0
2	0.892570734	0.3820800781	8.883210967e-08	34.12101746	77.74355316	65.904953	1.0
3	0.892570734	0.3820800781	8.883210967e-08	10.04438782	71.18610382	40.7992897	1.0
[Oberarm_R]
1	1.418637633	1.862644972e-08	1.862644972e-08	65.31656647	-52.50033188	-72.97796631	1.0
2	1.418637633	1.862644972e-08	1.862644972e-08	66.32848358	-52.57232285	-74.38709259	1.0
3	1.418637633	1.862644972e-08	1.862644972e-08	63.49515533	-51.75329208	-70.57448578	1.0
[Unterarm_R]
1	2.028232336	9.313225746e-08	-3.247987479e-07	2.411249399	60.31367874	2.920262098	1.0
2	2.028232336	9.313225746e-08	-3.247987479e-07	1.827040792	54.55182266	2.484117746	1.0
3	2.028232336	9.313225746e-08	-3.247987479e-07	1.534552336	45.50372314	2.17103219	1.0
[Vorderpfote_R]
1	1.705937147	1.11758709e-07	-3.015156835e-07	15.09826851	15.5019083	-2.496071339	1.0
2	1.705937147	1.11758709e-07	-3.015156835e-07	13.98515701	37.75339127	0.3290986121	1.0
3	1.705937147	1.11758709e-07	-3.015156835e-07	13.97141171	57.43680191	3.481053114	1.0
[Schwanz]
1	-0.09623631835	-7.265629876e-09	0.05583696067	-0.1995050907	-162.2219543	-1.516830444	1.0
2	-0.09623631835	-7.265629876e-09	0.05583690107	-0.2471926212	-163.9568481	-1.500638485	1.0
3	-0.09623631835	-7.265629876e-09	0.05583684146	-0.2952596247	-165.7340851	-1.489413261	1.0
[Schwanz_001]
1	0.9104328156	6.635672634e-08	-8.707502275e-08	0.402662307	27.37918663	-0.2400208563	1.0
2	0.9104328156	6.635672634e-08	-8.707502275e-08	0.3331028521	24.27088356	-0.306378454	1.0
3	0.9104328156	6.635672634e-08	-8.707502275e-08	0.1586783081	14.8608284	-0.4674247503	1.0
[Schwanz_002]
1	0.7855660915	6.082701276e-08	-2.382875941e-08	0.8382800817	28.49206924	-0.3597416282	1.0
2	0.7855660915	6.082701276e-08	-2.382875941e-08	0.8226286173	26.42917252	-0.3934438527	1.0
3	0.7855660915	6.082701276e-08	-2.382875941e-08	0.7847027183	19.43957901	-0.4977198839	1.0
[Schwanz_003]
1	0.8350354433	5.987204332e-08	5.614651855e-08	8.880763289e-07	-11.60312271	-8.974389942e-08	1.0
2	0.8350354433	5.987204332e-08	5.614651855e-08	8.880763289e-07	-11.60312271	-8.974389942e-08	1.0
3	0.8350354433	5.987204332e-08	5.614651855e-08	8.880763289e-07	-11.60312271	-8.974389942e-08	1.0
[Oberschenkel_L]
1	-0.3683827817	-0.5834400654	0.6254253387	29.49183846	-77.71240997	-24.8570118	1.0
2	-0.3242519498	-0.5834400654	0.5941705704	18.99622917	-66.8337326	-13.83395863	1.0
3	-0.2404393107	-0.5834400654	0.5348032117	16.18323135	-63.66506958	-10.86734486	1.0
[Unterschenkel_L]
1	1.686439037	1.338776201e-07	-7.450580597e-08	-14.50893021	-41.63170624	22.05763054	1.0
2	1.686439037	1.338776201e-07	-7.450580597e-08	-63.7471962	-69.13599396	75.09925079	1.0
3	1.686439037	1.338776201e-07	-7.450580597e-08	-120.8283768	-61.71796417	139.2457733	1.0
[Pfote1_L]
1	1.190900326	9.313225746e-08	1.065200195e-07	2.715100288	20.49032974	-4.899327755	1.0
2	1.190900326	9.313225746e-08	1.065200195e-07	1.60035181	40.37721634	-6.902188778	1.0
3	1.190900326	9.313225746e-08	1.065200195e-07	-17.39361954	68.21417236	-26.97100258	1.0
[Pfote2_L]
1	0.9876260161	9.313225746e-08	-5.820770088e-09	0.4525207281	-4.310858727	-3.984850168	1.0
2	0.9876260161	9.313225746e-08	-5.820770088e-09	-3.227102995	-10.91291142	-3.992579222	1.0
3	0.9876260161	9.313225746e-08	-5.820770088e-09	-6.698165417	-23.92591095	-5.548116207	1.0
[Oberschenkel_R]
1	-0.2730289996	0.5836999416	0.6933418512	-20.66900635	-71.17316437	15.71492481	1.0
2	-0.2288982123	0.5836999416	0.6620872617	-14.39754963	-55.61276245	8.680593491	1.0
3	-0.1450796425	0.5836999416	0.6027187109	-11.1079607	-32.48196793	4.086556435	1.0
[Unterschenkel_R]
1	1.68644917	1.234002411e-07	9.313230187e-09	-50.50025177	-104.3140335	35.76695633	1.0
2	1.68644917	1.234002411e-07	9.313230187e-09	-32.44777679	-119.5432663	13.12286568	1.0
3	1.68644917	1.234002411e-07	9.313230187e-09	-30.5001564	-128.7921448	7.838954926	1.0
[Pfote1_R]
1	1.190900326	4.656610209e-09	5.355104804e-08	-7.843748093	70.25105286	-0.7976107001	1.0
2	1.190900326	4.656610209e-09	5.355104804e-08	-7.544236183	69.57365417	-0.478531003	1.0
3	1.190900326	4.656610209e-09	5.355104804e-08	-4.769630909	55.18827438	2.731562614	1.0
[Pfote2_R]
1	0.9876259565	8.381903172e-08	1.071020961e-07	5.604823112	-32.65484238	6.186705112	1.0
2	0.9876259565	8.381903172e-08	1.071020961e-07	8.743128777	-17.22309494	9.938725471	1.0
3	0.9876259565	8.381903172e-08	1.071020961e-07	14.13519669	1.988880873	13.202425	1.0
[EndOfFile]
